<svg width="40" height="40" viewBox="0 0 40 40" fill="none" xmlns="http://www.w3.org/2000/svg">
<circle cx="20" cy="20" r="20" fill="white"/>
<path d="M15.566 25L12.262 20.66V25H9.868V15.172H12.262V19.484L15.538 15.172H18.352L14.544 19.988L18.492 25H15.566ZM27.1197 18.336C27.1197 18.9053 26.9891 19.428 26.7277 19.904C26.4664 20.3707 26.0651 20.7487 25.5237 21.038C24.9824 21.3273 24.3104 21.472 23.5077 21.472H22.0237V25H19.6297V15.172H23.5077C24.2917 15.172 24.9544 15.3073 25.4957 15.578C26.0371 15.8487 26.4431 16.222 26.7137 16.698C26.9844 17.174 27.1197 17.72 27.1197 18.336ZM23.3257 19.568C23.7831 19.568 24.1237 19.4607 24.3477 19.246C24.5717 19.0313 24.6837 18.728 24.6837 18.336C24.6837 17.944 24.5717 17.6407 24.3477 17.426C24.1237 17.2113 23.7831 17.104 23.3257 17.104H22.0237V19.568H23.3257ZM30.76 15.172V25H28.366V15.172H30.76Z" fill="#F82237"/>
</svg>
